<svg id="visual" viewBox="0 0 900 600" width="900" height="600" xmlns="http://www.w3.org/2000/svg" xmlns:xlink="http://www.w3.org/1999/xlink" version="1.1"><rect x="0" y="0" width="900" height="600" fill="#000"></rect><defs><linearGradient id="grad1_0" x1="33.3%" y1="0%" x2="100%" y2="100%"><stop offset="20%" stop-color="#01ff84" stop-opacity="1"></stop><stop offset="80%" stop-color="#01ff84" stop-opacity="1"></stop></linearGradient></defs><defs><linearGradient id="grad1_1" x1="33.3%" y1="0%" x2="100%" y2="100%"><stop offset="20%" stop-color="#01ff84" stop-opacity="1"></stop><stop offset="80%" stop-color="#00da63" stop-opacity="1"></stop></linearGradient></defs><defs><linearGradient id="grad1_2" x1="33.3%" y1="0%" x2="100%" y2="100%"><stop offset="20%" stop-color="#00b542" stop-opacity="1"></stop><stop offset="80%" stop-color="#00da63" stop-opacity="1"></stop></linearGradient></defs><defs><linearGradient id="grad1_3" x1="33.3%" y1="0%" x2="100%" y2="100%"><stop offset="20%" stop-color="#00b542" stop-opacity="1"></stop><stop offset="80%" stop-color="#009221" stop-opacity="1"></stop></linearGradient></defs><defs><linearGradient id="grad1_4" x1="33.3%" y1="0%" x2="100%" y2="100%"><stop offset="20%" stop-color="#007000" stop-opacity="1"></stop><stop offset="80%" stop-color="#009221" stop-opacity="1"></stop></linearGradient></defs><defs><linearGradient id="grad1_5" x1="33.3%" y1="0%" x2="100%" y2="100%"><stop offset="20%" stop-color="#007000" stop-opacity="1"></stop><stop offset="80%" stop-color="#004e00" stop-opacity="1"></stop></linearGradient></defs><defs><linearGradient id="grad1_6" x1="33.3%" y1="0%" x2="100%" y2="100%"><stop offset="20%" stop-color="#003300" stop-opacity="1"></stop><stop offset="80%" stop-color="#004e00" stop-opacity="1"></stop></linearGradient></defs><defs><linearGradient id="grad1_7" x1="33.3%" y1="0%" x2="100%" y2="100%"><stop offset="20%" stop-color="#003300" stop-opacity="1"></stop><stop offset="80%" stop-color="#000000" stop-opacity="1"></stop></linearGradient></defs><defs><linearGradient id="grad2_0" x1="0%" y1="0%" x2="66.7%" y2="100%"><stop offset="20%" stop-color="#01ff84" stop-opacity="1"></stop><stop offset="80%" stop-color="#01ff84" stop-opacity="1"></stop></linearGradient></defs><defs><linearGradient id="grad2_1" x1="0%" y1="0%" x2="66.7%" y2="100%"><stop offset="20%" stop-color="#00da63" stop-opacity="1"></stop><stop offset="80%" stop-color="#01ff84" stop-opacity="1"></stop></linearGradient></defs><defs><linearGradient id="grad2_2" x1="0%" y1="0%" x2="66.7%" y2="100%"><stop offset="20%" stop-color="#00da63" stop-opacity="1"></stop><stop offset="80%" stop-color="#00b542" stop-opacity="1"></stop></linearGradient></defs><defs><linearGradient id="grad2_3" x1="0%" y1="0%" x2="66.7%" y2="100%"><stop offset="20%" stop-color="#009221" stop-opacity="1"></stop><stop offset="80%" stop-color="#00b542" stop-opacity="1"></stop></linearGradient></defs><defs><linearGradient id="grad2_4" x1="0%" y1="0%" x2="66.7%" y2="100%"><stop offset="20%" stop-color="#009221" stop-opacity="1"></stop><stop offset="80%" stop-color="#007000" stop-opacity="1"></stop></linearGradient></defs><defs><linearGradient id="grad2_5" x1="0%" y1="0%" x2="66.7%" y2="100%"><stop offset="20%" stop-color="#004e00" stop-opacity="1"></stop><stop offset="80%" stop-color="#007000" stop-opacity="1"></stop></linearGradient></defs><defs><linearGradient id="grad2_6" x1="0%" y1="0%" x2="66.7%" y2="100%"><stop offset="20%" stop-color="#004e00" stop-opacity="1"></stop><stop offset="80%" stop-color="#003300" stop-opacity="1"></stop></linearGradient></defs><defs><linearGradient id="grad2_7" x1="0%" y1="0%" x2="66.7%" y2="100%"><stop offset="20%" stop-color="#000000" stop-opacity="1"></stop><stop offset="80%" stop-color="#003300" stop-opacity="1"></stop></linearGradient></defs><g transform="translate(900, 0)"><path d="M0 378.6C-67.5 369.4 -134.9 360.2 -189.3 327.9C-243.7 295.5 -285 240 -314.4 181.5C-343.7 123 -361.2 61.5 -378.6 0L0 0Z" fill="#002b00"></path><path d="M0 331.3C-59 323.2 -118 315.2 -165.6 286.9C-213.2 258.6 -249.4 210 -275.1 158.8C-300.8 107.6 -316 53.8 -331.3 0L0 0Z" fill="#003f00"></path><path d="M0 283.9C-50.6 277 -101.2 270.2 -142 245.9C-182.8 221.6 -213.7 180 -235.8 136.1C-257.8 92.2 -270.9 46.1 -283.9 0L0 0Z" fill="#005f00"></path><path d="M0 236.6C-42.2 230.9 -84.3 225.1 -118.3 204.9C-152.3 184.7 -178.1 150 -196.5 113.4C-214.8 76.9 -225.7 38.4 -236.6 0L0 0Z" fill="#00810c"></path><path d="M0 189.3C-33.7 184.7 -67.5 180.1 -94.6 163.9C-121.8 147.8 -142.5 120 -157.2 90.8C-171.9 61.5 -180.6 30.7 -189.3 0L0 0Z" fill="#00a432"></path><path d="M0 142C-25.3 138.5 -50.6 135.1 -71 122.9C-91.4 110.8 -106.9 90 -117.9 68.1C-128.9 46.1 -135.4 23.1 -142 0L0 0Z" fill="#00c752"></path><path d="M0 94.6C-16.9 92.3 -33.7 90.1 -47.3 82C-60.9 73.9 -71.2 60 -78.6 45.4C-85.9 30.7 -90.3 15.4 -94.6 0L0 0Z" fill="#00ec73"></path><path d="M0 47.3C-8.4 46.2 -16.9 45 -23.7 41C-30.5 36.9 -35.6 30 -39.3 22.7C-43 15.4 -45.1 7.7 -47.3 0L0 0Z" fill="#01ff84"></path></g><g transform="translate(0, 600)"><path d="M0 -378.6C66.1 -368.6 132.1 -358.6 189.3 -327.9C246.4 -297.1 294.7 -245.6 324.8 -187.5C354.8 -129.4 366.7 -64.7 378.6 0L0 0Z" fill="#002b00"></path><path d="M0 -331.3C57.8 -322.5 115.6 -313.8 165.6 -286.9C215.6 -260 257.9 -214.9 284.2 -164.1C310.5 -113.2 320.9 -56.6 331.3 0L0 0Z" fill="#003f00"></path><path d="M0 -283.9C49.6 -276.4 99.1 -269 142 -245.9C184.8 -222.8 221 -184.2 243.6 -140.6C266.1 -97 275 -48.5 283.9 0L0 0Z" fill="#005f00"></path><path d="M0 -236.6C41.3 -230.4 82.6 -224.1 118.3 -204.9C154 -185.7 184.2 -153.5 203 -117.2C221.8 -80.9 229.2 -40.4 236.6 0L0 0Z" fill="#00810c"></path><path d="M0 -189.3C33 -184.3 66.1 -179.3 94.6 -163.9C123.2 -148.6 147.3 -122.8 162.4 -93.8C177.4 -64.7 183.4 -32.3 189.3 0L0 0Z" fill="#00a432"></path><path d="M0 -142C24.8 -138.2 49.6 -134.5 71 -122.9C92.4 -111.4 110.5 -92.1 121.8 -70.3C133.1 -48.5 137.5 -24.3 142 0L0 0Z" fill="#00c752"></path><path d="M0 -94.6C16.5 -92.1 33 -89.7 47.3 -82C61.6 -74.3 73.7 -61.4 81.2 -46.9C88.7 -32.3 91.7 -16.2 94.6 0L0 0Z" fill="#00ec73"></path><path d="M0 -47.3C8.3 -46.1 16.5 -44.8 23.7 -41C30.8 -37.1 36.8 -30.7 40.6 -23.4C44.4 -16.2 45.8 -8.1 47.3 0L0 0Z" fill="#01ff84"></path></g></svg>